# File created by Blade
# Date/Time:  Mon Sep 22 16:45:27 2014
# Frame Rate: 120.000 fps
#------------------------------------------------------
:FULLY-SPECIFIED
:DEGREES
1350
root 3.142415 36.387660 2.854295 -26.232344 -0.025616 3.947530
RightUpLeg 25.450777 -7.148129 1.155697
RightLeg 20.204486 -0.000000 -0.000000
RightFoot -25.273471 -16.334529 9.546195
RightToeBase 3.774610 -0.000000 -0.000000
LeftUpLeg -79.173667 11.109798 -9.438109
LeftLeg 115.797822 -0.000000 -0.000000
LeftFoot 14.992701 6.610075 -42.386190
LeftToeBase -1.074923 -0.000000 0.000000
Spine 26.775458 14.099409 9.902272
RightShoulder 3.372634 -15.063572 -13.186647
RightArm 19.596826 22.155151 48.988342
RightForeArm 17.700265 -0.000000 95.000578
RightHand 3.489174 -0.000000 -31.083009
RightHandThumb1 -24.326973 -0.000000 -32.862282
LeftShoulder -29.727903 33.690139 -2.985034
LeftArm 24.191729 -16.029051 -72.273713
LeftForeArm 29.514138 -0.000000 20.432036
LeftHand -15.895612 -0.000000 -15.774059
LeftHandThumb1 -26.253704 0.000000 33.147579
Head 13.783028 -13.597178 2.147707
1351
root 3.162153 36.401977 2.864162 -26.244981 -0.146032 4.201038
RightUpLeg 25.434710 -6.887817 0.982579
RightLeg 20.266114 -0.000000 -0.000000
RightFoot -25.281703 -16.432315 9.468492
RightToeBase 3.696211 -0.000000 -0.000000
LeftUpLeg -78.750950 10.870525 -8.498385
LeftLeg 115.881482 -0.000000 -0.000000
LeftFoot 14.803247 6.549427 -41.890650
LeftToeBase -1.156977 -0.000000 0.000000
Spine 26.774733 14.152938 9.763997
RightShoulder 3.409658 -14.933891 -13.277000
RightArm 19.767963 21.879931 48.981043
RightForeArm 17.707083 -0.000000 94.813494
RightHand 3.488772 -0.000000 -31.110760
RightHandThumb1 -24.326973 -0.000000 -32.862282
LeftShoulder -29.543634 33.592701 -2.979459
LeftArm 24.146089 -15.666382 -72.164765
LeftForeArm 29.348742 -0.000000 20.738728
LeftHand -16.200711 -0.000000 -15.385791
LeftHandThumb1 -26.253704 0.000000 33.147579
Head 14.019950 -13.278697 1.848609
1352
root 3.186567 36.417430 2.873502 -26.253364 -0.225624 4.464544
RightUpLeg 25.417745 -6.634463 0.788493
RightLeg 20.322446 -0.000000 -0.000000
RightFoot -25.307649 -16.517348 9.452312
RightToeBase 3.687551 -0.000000 -0.000000
LeftUpLeg -78.309434 10.556571 -7.640576
LeftLeg 115.932875 -0.000000 -0.000000
LeftFoot 14.579955 6.495799 -41.403713
LeftToeBase -1.157049 -0.000000 0.000000
Spine 26.748047 14.141727 9.560665
RightShoulder 3.501905 -14.791833 -13.363653
RightArm 19.925625 21.611907 48.966991
RightForeArm 17.711371 -0.000000 94.607425
RightHand 3.499145 0.000000 -31.109370
RightHandThumb1 -24.326973 -0.000000 -32.862282
LeftShoulder -29.602270 33.680365 -3.103895
LeftArm 24.680034 -15.709071 -72.409066
LeftForeArm 29.605584 -0.000000 20.534563
LeftHand -16.045037 0.000000 -15.440661
LeftHandThumb1 -26.253704 0.000000 33.147579
Head 14.270116 -12.950698 1.578517
1353
root 3.208502 36.431420 2.882192 -26.248718 -0.293532 4.730456
RightUpLeg 25.380051 -6.322529 0.643054
RightLeg 20.388275 -0.000000 -0.000000
RightFoot -25.367210 -16.680881 9.428902
RightToeBase 3.719802 -0.000000 -0.000000
LeftUpLeg -77.892662 10.247062 -6.863831
LeftLeg 115.968806 -0.000000 -0.000000
LeftFoot 14.311852 6.431448 -40.938155
LeftToeBase -0.725022 -0.000000 0.000000
Spine 26.715399 14.143753 9.325966
RightShoulder 3.550990 -14.653772 -13.441171
RightArm 20.116867 21.351208 49.028946
RightForeArm 17.748664 0.000000 94.401912
RightHand 3.565809 -0.000000 -30.942918
RightHandThumb1 -24.326973 -0.000000 -32.862282
LeftShoulder -29.600376 33.657168 -3.155584
LeftArm 24.896156 -15.419419 -72.396574
LeftForeArm 29.390445 -0.000000 20.584743
LeftHand -15.815630 -0.000000 -15.600725
LeftHandThumb1 -26.253704 0.000000 33.147579
Head 14.482078 -12.731494 1.331254
1354
root 3.234572 36.446046 2.891638 -26.264584 -0.318120 4.993349
RightUpLeg 25.375545 -6.015217 0.497609
RightLeg 20.434245 -0.000000 -0.000000
RightFoot -25.420572 -16.884253 9.424422
RightToeBase 3.709926 -0.000000 -0.000000
LeftUpLeg -77.461625 9.907769 -6.241388
LeftLeg 115.977836 -0.000000 -0.000000
LeftFoot 13.991830 6.411339 -40.362129
LeftToeBase -0.540033 -0.000000 0.000000
Spine 26.708455 14.169290 9.106108
RightShoulder 3.569967 -14.502828 -13.463330
RightArm 20.225825 21.130882 48.996783
RightForeArm 17.828658 -0.000000 94.226738
RightHand 3.572836 -0.000000 -30.827881
RightHandThumb1 -24.326973 -0.000000 -32.862282
LeftShoulder -29.550301 33.649905 -3.149866
LeftArm 25.079601 -15.076322 -72.394121
LeftForeArm 29.120915 -0.000000 20.724376
LeftHand -15.749670 0.000000 -15.540315
LeftHandThumb1 -26.253704 0.000000 33.147579
Head 14.663319 -12.693178 1.015830
1355
root 3.262017 36.460454 2.899588 -26.283096 -0.282399 5.250618
RightUpLeg 25.388269 -5.783457 0.318422
RightLeg 20.446811 -0.000000 -0.000000
RightFoot -25.424048 -17.164963 9.309000
RightToeBase 3.652782 -0.000000 -0.000000
LeftUpLeg -77.018515 9.525984 -5.709031
LeftLeg 115.966326 -0.000000 -0.000000
LeftFoot 13.741046 6.195042 -39.815551
LeftToeBase -0.528052 -0.000000 0.000000
Spine 26.708068 14.137831 8.882168
RightShoulder 3.599413 -14.415864 -13.568850
RightArm 20.365284 20.939157 49.082982
RightForeArm 17.824151 0.000000 94.081663
RightHand 3.558965 -0.000000 -30.693851
RightHandThumb1 -24.326973 -0.000000 -32.862282
LeftShoulder -29.375405 33.537877 -3.100217
LeftArm 24.881203 -14.356220 -72.045989
LeftForeArm 28.559395 -0.000000 21.126316
LeftHand -15.967625 -0.000000 -15.041257
LeftHandThumb1 -26.253704 0.000000 33.147579
Head 14.797934 -12.488906 0.785830
1356
root 3.294324 36.475121 2.907466 -26.275934 -0.251783 5.475816
RightUpLeg 25.383998 -5.545422 0.185055
RightLeg 20.456249 -0.000000 -0.000000
RightFoot -25.454212 -17.608489 8.994823
RightToeBase 3.929575 -0.000000 -0.000000
LeftUpLeg -76.613180 9.128434 -5.287182
LeftLeg 115.943063 -0.000000 -0.000000
LeftFoot 13.385637 6.066967 -39.620195
LeftToeBase -0.164956 -0.000000 0.000000
Spine 26.657833 14.064531 8.728907
RightShoulder 3.682994 -14.404084 -13.764093
RightArm 20.521499 20.784666 49.209481
RightForeArm 17.763271 -0.000000 93.959309
RightHand 3.538247 -0.000000 -30.677007
RightHandThumb1 -24.326973 -0.000000 -32.862282
LeftShoulder -29.366951 33.552703 -3.225992
LeftArm 25.016050 -13.946137 -71.908700
LeftForeArm 28.219125 -0.000000 21.310990
LeftHand -15.908153 -0.000000 -15.224313
LeftHandThumb1 -26.253704 0.000000 33.147579
Head 14.965823 -12.052315 0.630896
1357
root 3.328547 36.489933 2.914433 -26.251768 -0.217203 5.688750
RightUpLeg 25.365649 -5.309384 0.057713
RightLeg 20.448506 -0.000000 -0.000000
RightFoot -25.458423 -17.865030 8.945528
RightToeBase 3.867569 -0.000000 -0.000000
LeftUpLeg -76.243165 8.752591 -4.991495
LeftLeg 115.896793 -0.000000 -0.000000
LeftFoot 13.063517 5.989066 -39.482355
LeftToeBase -0.100937 -0.000000 0.000000
Spine 26.589748 14.036729 8.596668
RightShoulder 3.700522 -14.435645 -13.914238
RightArm 20.687400 20.645271 49.287461
RightForeArm 17.757460 -0.000000 93.834554
RightHand 3.510755 -0.000000 -30.559746
RightHandThumb1 -24.326973 -0.000000 -32.862282
LeftShoulder -29.393870 33.597968 -3.359839
LeftArm 25.235118 -13.531402 -71.799401
LeftForeArm 27.974416 0.000000 21.464871
LeftHand -15.716987 -0.000000 -15.293944
LeftHandThumb1 -26.253704 0.000000 33.147579
Head 15.135858 -11.829328 0.410598
1358
root 3.362460 36.504029 2.923076 -26.254409 -0.127248 5.885823
RightUpLeg 25.411407 -5.113636 -0.073517
RightLeg 20.386138 -0.000000 -0.000000
RightFoot -25.464208 -18.080649 8.952139
RightToeBase 3.811040 -0.000000 -0.000000
LeftUpLeg -75.871176 8.356411 -4.814138
LeftLeg 115.830086 -0.000000 -0.000000
LeftFoot 12.854597 5.975624 -39.483306
LeftToeBase -0.280326 -0.000000 0.000000
Spine 26.553825 13.985280 8.453187
RightShoulder 3.705339 -14.469009 -14.015883
RightArm 20.809073 20.539097 49.301341
RightForeArm 17.853304 -0.000000 93.730401
RightHand 3.552730 -0.000000 -30.530088
RightHandThumb1 -24.326973 -0.000000 -32.862282
LeftShoulder -29.442271 33.640641 -3.457079
LeftArm 25.419267 -13.065096 -71.693226
LeftForeArm 27.833492 0.000000 21.681403
LeftHand -15.756176 -0.000000 -15.446762
LeftHandThumb1 -26.253704 0.000000 33.147579
Head 15.267096 -11.749187 0.194477
